<svg width="90" height="63" viewBox="0 0 90 63" fill="none" xmlns="http://www.w3.org/2000/svg">
<path d="M80.0597 52.3072L76.3771 48.1997L72.5529 52.3072H65.0461H48.8993V33.186H41.3925L50.7406 11.7986H59.8055L63.0631 19.1638V11.7986H74.3942L76.3771 17.3225L78.3601 11.7986H87V8.54096C87 6.55802 85.442 5 83.459 5H7.54096C5.55802 5 4 6.55802 4 8.54096V54.5734C4 56.5563 5.55802 58.1143 7.54096 58.1143H83.459C85.442 58.1143 87 56.5563 87 54.5734V52.3072H80.0597Z" fill="#0071CE"/>
<path d="M81.0513 50.0408H87.0001L79.21 41.6841L87.0001 33.4691H81.1929L76.2356 38.8514L71.4199 33.4691H65.4711L73.4028 41.8258L65.4711 50.0408H71.2782L76.2356 44.6585L81.0513 50.0408Z" fill="#0071CE"/>
<path d="M55.9813 46.2166V43.6671H65.3294V39.8428H55.9813V37.2933H65.471V33.4691H51.4489V50.0408H65.471V46.2166H55.9813Z" fill="#0071CE"/>
<path d="M82.6093 31.0612H86.8584V14.3479L80.0598 14.4895L76.3772 24.8291L72.553 14.4895H65.4711V31.0612H70.0035V19.4469L74.2526 31.0612H78.2185L82.6093 19.4469V31.0612Z" fill="#0071CE"/>
<path d="M58.2478 14.4896H52.4406L45.0754 31.0613H50.0328L51.4492 27.8036H59.0976L60.514 31.0613H65.613L58.2478 14.4896ZM53.0072 23.9794L55.2734 18.5971L57.5396 23.9794H53.0072Z" fill="#0071CE"/>
<path d="M82.8925 41.2595L87 45.7919V36.7271L82.8925 41.2595Z" fill="#0071CE"/>
</svg>
