<svg width="120" height="80" viewBox="0 0 120 80" fill="none" xmlns="http://www.w3.org/2000/svg">
<g clip-path="url(#clip0_1007_266)">
<path d="M116 0H4C1.79086 0 0 1.79086 0 4V76C0 78.2091 1.79086 80 4 80H116C118.209 80 120 78.2091 120 76V4C120 1.79086 118.209 0 116 0Z" fill="white"/>
<path fill-rule="evenodd" clip-rule="evenodd" d="M97.5288 54.6561V53.7383H97.289L97.0137 54.3697L96.7378 53.7383H96.498V54.6561H96.6675V53.9636L96.9257 54.5608H97.1011L97.36 53.9623V54.6561H97.5288ZM96.0111 54.6561V53.8946H96.318V53.7396H95.5361V53.8946H95.843V54.6561H96.0111Z" fill="#F79E1B"/>
<path d="M95.0597 61.3072L91.3771 57.1997L87.5529 61.3072H80.0461H63.8993V42.186H56.3925L65.7406 20.7986H74.8055L78.0631 28.1638V20.7986H89.3942L91.3771 26.3225L93.3601 20.7986H102V17.541C102 15.558 100.442 14 98.459 14H22.541C20.558 14 19 15.558 19 17.541V63.5734C19 65.5563 20.558 67.1143 22.541 67.1143H98.459C100.442 67.1143 102 65.5563 102 63.5734V61.3072H95.0597Z" fill="#0071CE"/>
<path d="M96.0514 59.0409H102L94.2101 50.6842L102 42.4692H96.193L91.2357 47.8515L86.42 42.4692H80.4712L88.4029 50.8259L80.4712 59.0409H86.2783L91.2357 53.6586L96.0514 59.0409Z" fill="#0071CE"/>
<path d="M70.9814 55.2167V52.6672H80.3295V48.8429H70.9814V46.2934H80.4711V42.4692H66.449V59.0409H80.4711V55.2167H70.9814Z" fill="#0071CE"/>
<path d="M97.6094 40.061H101.858V23.3477L95.0599 23.4893L91.3773 33.8289L87.5531 23.4893H80.4712V40.061H85.0036V28.4467L89.2527 40.061H93.2186L97.6094 28.4467V40.061Z" fill="#0071CE"/>
<path d="M73.2478 23.4897H67.4406L60.0754 40.0614H65.0328L66.4492 36.8037H74.0976L75.514 40.0614H80.613L73.2478 23.4897ZM68.0072 32.9795L70.2734 27.5972L72.5396 32.9795H68.0072Z" fill="#0071CE"/>
<path d="M97.8926 50.2594L102 54.7919V45.7271L97.8926 50.2594Z" fill="#0071CE"/>
</g>
<defs>
<clipPath id="clip0_1007_266">
<rect width="120" height="80" fill="white"/>
</clipPath>
</defs>
</svg>
